<svg xmlns="http://www.w3.org/2000/svg" xmlns:xlink="http://www.w3.org/1999/xlink" viewBox="0 0 2226.07 3083.98"><defs><style>.cls-1{fill:url(#linear-gradient);}.cls-2{fill:url(#linear-gradient-2);}.cls-3{fill:url(#linear-gradient-3);}.cls-4{opacity:0.27;}.cls-5,.cls-7{fill:#000067;}.cls-10,.cls-5,.cls-6,.cls-8{fill-rule:evenodd;}.cls-6{fill:#fff;}.cls-8{fill:#f97f80;}.cls-9{opacity:0.3;}.cls-10{fill:#e31b23;}.cls-11{mask:url(#mask);}.cls-12{mask:url(#mask-2);}.cls-13{mask:url(#mask-3);}.cls-14{opacity:0.21;}</style><linearGradient id="linear-gradient" x1="240.12" y1="1333.54" x2="443.9" y2="2041.1" gradientTransform="translate(260.11 -287.4)" gradientUnits="userSpaceOnUse"><stop offset="0" stop-color="#949494"/><stop offset="1"/></linearGradient><linearGradient id="linear-gradient-2" x1="354.47" y1="1299.96" x2="558.25" y2="2007.53" gradientTransform="translate(266.74 -288.73)" xlink:href="#linear-gradient"/><linearGradient id="linear-gradient-3" x1="1097.6" y1="1359.25" x2="1252.25" y2="1851.93" gradientTransform="translate(297.58 -287.5)" gradientUnits="userSpaceOnUse"><stop offset="0" stop-color="#a1a1a1"/><stop offset="1"/></linearGradient><mask id="mask" x="481.43" y="1181.79" width="226.13" height="383.29" maskUnits="userSpaceOnUse"><rect class="cls-1" x="481.43" y="1181.79" width="226.13" height="383.29"/></mask><mask id="mask-2" x="631.65" y="1174.24" width="176.91" height="360.7" maskUnits="userSpaceOnUse"><rect class="cls-2" x="631.65" y="1174.24" width="176.91" height="360.7"/></mask><mask id="mask-3" x="1329.82" y="1179.57" width="318.71" height="383.29" maskUnits="userSpaceOnUse"><rect class="cls-3" x="1329.82" y="1179.57" width="318.71" height="383.29"/></mask></defs><title>rabbit</title><g id="Layer_2" data-name="Layer 2"><g id="Layer_1-2" data-name="Layer 1"><g class="cls-4"><path class="cls-5" d="M1113,3084c571.55,0,1034.88-56.23,1034.88-125.59S1684.55,2832.8,1113,2832.8,78.1,2889,78.1,2958.39,541.44,3084,1113,3084"/></g><path class="cls-6" d="M1688.48,2981.91c-147.39.73-182-57.9-225.64-144.89-58.44-116.35-670.36-113.77-755.42,0-50.54,67.56,14.44,157.79-235.52,143.11-700.08,10-450.18-358.4-167.54-278.61q-13.29-163.16,160-232.86-24.24-72.54,15.13-125.33c-352.87-160.32-358.53-462.18-59.57-543Q135.1,1398.84,521.18,975.6C-221.13-3.13,550.88-481.27,842.9,778.31Q908.66,749.92,954,740.08C836.24,587.7,911.48,532,1025,658.33c-136.95-218.44,110.58-277.83,193.3,72.44q83.48,17.26,134.19,45.32c32.26-545.67,242.45-862.41,551-714.55,239,114.55,169.68,404.12-56.92,428.35q-148.46,259-196.39,530.59c224.23,244.71,225,620,1.79,865.62q177.45-128.24,232-120a70.72,70.72,0,1,1,134.65-4.89c101.89-113.33,218.92,19.39,87.12,99.52q219.55,113.43-36.9,135.53Q1929.09,2240.4,1743.58,2278q17.88,149.63-13.33,231.95,139,51.68,150.18,196.44a181.08,181.08,0,0,1,185.73,19c53.62,40.21,118.54,126.5,70.25,173C2036.09,2994.91,1863,2989.44,1688.48,2981.91Z"/><path class="cls-7" d="M1819.72,3004.69c-44.17,0-88.62-1.91-131.61-3.77h-2.31c-150.64,0-192.88-61.6-240-155.37-12.86-25.62-79-57.63-226.1-70.65-217-19.21-454,15.83-497.09,73.5-11.07,14.81-15.68,31.44-20.55,49.06-7.54,27.23-16.08,58.09-50.71,78.76s-91.93,28-179.92,22.92c-9.34.13-18.54.2-27.52.2-322.71,0-410.68-82.27-434.3-132.29-18-38.11-10.57-81,20.41-117.58,45.76-54.09,145.47-93.7,254.33-72.28.45-99.22,53.15-172.91,157-219.45-9.67-39.19-6.14-74.83,10.54-106.37-174.7-85.2-276-215.21-265.58-342.83,8-98.68,83.33-179.17,203.14-218.93C214,1525.32,249.93,1251.29,496.55,974.51,188.29,562.67,139.38,228.78,228.64,79.44,264.15,20,322.08-8.19,387.54,2.07c83,13,172.29,85.52,251.41,204.18C727.2,338.61,802.16,527,856.24,752.09c24-9.76,46-17.58,65.78-23.4-48.43-69.85-60-124.8-30.51-149.4,18.93-15.78,47.36-12.49,80.28,7.63-10.3-38.28-7.83-71.54,8.17-95.1s42.77-33.74,73.57-28.07c57.19,10.55,137.9,82.7,180.45,250.93,39,8.67,73,19.33,101.42,31.81,25.44-355.31,128.31-610.35,283.93-702,87.06-51.31,185.45-51.32,292.45-.06C2049.92,110.6,2083.36,226,2068.59,312,2051,414.53,1967.13,492.07,1858.45,507.57c-93.19,164.56-156.34,335.06-187.83,507.09a661.29,661.29,0,0,1,66.31,791c62.8-39,100.11-53.37,124-57.57a89.77,89.77,0,0,1,176.46-28.45c29.6-19.86,61.6-26.3,90.36-17.21,30.28,9.57,51.42,34.75,55.15,65.71,3.89,32.21-11,64.06-41.53,90.34,63.6,36.22,89.66,66.08,83.89,95.23-6.59,33.26-50.09,51.58-144.91,60.68-90.29,154.42-196.5,248-316,278.42,8.71,84.49,5.23,153.7-10.38,206.26,81.11,35.31,128.91,95.95,142.44,180.67a199.59,199.59,0,0,1,181.15,30.46c43.36,32.52,91.47,90.94,94.62,142.34,1.44,23.36-6.38,43.95-22.6,59.56C2069.55,2989.1,1945.83,3004.69,1819.72,3004.69Zm-131.25-41.8h.83c158.19,6.82,337.49,14.57,433.92-78.24,8.27-8,11.77-17.44,11-29.83-2.28-37.19-42.65-86.62-79.48-114.24a161.75,161.75,0,0,0-166.23-17,19,19,0,0,1-27-15.74c-6.89-89.25-52-148.15-137.84-180.07a19,19,0,0,1-11.16-24.56c19.6-51.78,23.72-126.8,12.23-223a19,19,0,0,1,15.1-20.89c117.49-23.82,222.65-115.51,312.55-272.53a19,19,0,0,1,14.87-9.49c113.43-9.78,120.72-30.87,120.76-31.08s1.31-21-90.95-68.61a19,19,0,0,1-1.15-33.15c34.32-20.86,52.29-47.06,49.29-71.87-1.92-16-13-29-28.85-34-25.28-8-56.48,5.22-83.54,35.31a19,19,0,0,1-32.45-17.83,51.71,51.71,0,1,0-98.45,3.57,19,19,0,0,1-20.75,25.24c-17.46-2.63-69.05,9-218,116.57a19,19,0,0,1-25.21-28.2c218-239.88,217.24-601-1.74-840a19,19,0,0,1-4.7-16.15c32.17-182.33,99-362.92,198.61-536.75a19,19,0,0,1,14.48-9.45c97.81-10.46,171-75.39,186.48-165.42,12.42-72.27-16.72-169.82-135.76-226.87-94.86-45.45-181.23-45.94-256.7-1.47-148.64,87.58-246,342.71-267.13,700a19,19,0,0,1-28.19,15.52c-32-17.69-75.31-32.27-128.83-43.34a19,19,0,0,1-14.66-14.25c-35.09-148.59-102.22-224.59-153.2-234-11-2-26-1.58-35.21,12-13.17,19.4-13.29,66.41,29.74,135A19,19,0,0,1,1010.9,671c-55.41-61.62-90.16-66.62-95-62.54-6.16,5.13-5,44.64,53.14,120a19,19,0,0,1-11,30.21c-28.83,6.25-65,18.74-107.56,37.1a19,19,0,0,1-26.06-13.16C771,552.22,695.9,360.21,607.3,227.35,534.16,117.65,454,51,381.65,39.65c-50.8-8-92.42,12.54-120.37,59.3C219.63,168.64,215.89,286.17,251,421.39c43,165.68,141.7,353.35,285.32,542.71a19,19,0,0,1-1.1,24.31c-252.85,277.17-285.51,539.16-99.83,800.92a19,19,0,0,1-10.55,29.36c-120.15,32.48-193.28,102.81-200.62,193C214.8,2127.54,315.61,2248,487.33,2326a19,19,0,0,1,7.38,28.68c-22.49,30.16-26.53,65.47-12.34,107.93a19,19,0,0,1-10.94,23.67c-107.85,43.4-156.3,113.29-148.11,213.68a19,19,0,0,1-24.12,19.84c-102.93-29.05-198.7,5.28-240.11,54.23-15,17.76-29.84,45.49-15.06,76.77,12.82,27.12,81.42,115.21,427.6,110.29.43,0,.92,0,1.38,0,169.29,10,179.48-27,192.43-73.82,5.34-19.29,11.39-41.15,26.75-61.69,64.87-86.76,355.16-104.17,530.9-88.6,100.64,8.9,226.88,32,256.74,91.46,43,85.7,74,134.4,205.86,134.4C1686.61,2962.89,1687.58,2963,1688.47,2962.89Z"/><path class="cls-8" d="M1121,2750.91q-21.75-.33-43.65,0C873.63,2751,696,2751.7,696,2598.38c0-156.85,149.42-415.91,395.47-415.53,253.22.38,399,264,399,420.86,0,149.48-172,147.71-369.56,147.2"/><g class="cls-9"><path class="cls-5" d="M707.42,2837c-50.54,67.56,14.44,157.79-235.52,143.09-491.29,7-514.72-172.29-387.34-252.3C-29.87,2927.74,582.45,2975.88,638.35,2865q9.55-110.85,97.64-151.43c243.51-54.89,464.15-40.43,707.46,9.76q88.42,40.71,98,152c56.11,111.35,670.73,63,555.86-137.67,127.87,80.32,104.34,260.3-388.79,253.27-250.9,14.75-185.67-75.82-236.39-143.64-83.89-112.17-677-127.56-764.71-10.21"/></g><path class="cls-8" d="M1611.56,398.33q-123,272.86-124.13,463.47l56.87,48Q1661,643,1745.4,486.78q-71.91-19.51-133.84-88.45"/><path class="cls-8" d="M601.35,924.88C75.91,150.65,446.18-98.2,709.79,828.91q-31,31.37-108.44,96"/><path class="cls-7" d="M1803.18,513.9c-93.37,0-176.34-52.36-247.9-156.82a19,19,0,1,1,31.37-21.5c100.81,147.14,221.22,177.81,368.13,93.72a19,19,0,0,1,18.89,33Q1883.51,513.93,1803.18,513.9Z"/><path class="cls-7" d="M1749.86,2414c-.44,0-.88,0-1.33-.05a19,19,0,0,1-17.66-20.28,370.75,370.75,0,0,0-145.63-321.38,19,19,0,0,1,23-30.26,408.69,408.69,0,0,1,160.52,354.26A19,19,0,0,1,1749.86,2414Z"/><path class="cls-7" d="M618.71,1923.73a19,19,0,0,1-16.43-9.41,187,187,0,0,0-267.11-59.66,19,19,0,1,1-21.5-31.37,225.07,225.07,0,0,1,321.43,71.8,19,19,0,0,1-6.8,26A18.78,18.78,0,0,1,618.71,1923.73Z"/><path class="cls-7" d="M555.73,2442.93a95.44,95.44,0,0,1-95.26-100.65,19,19,0,0,1,38,2.09,57.37,57.37,0,1,0,114.58.31,19,19,0,0,1,32.57-14.24,41.81,41.81,0,1,0,46.75-67.5,19,19,0,0,1,10.45-36.22A34.08,34.08,0,1,0,692,2162.83,19,19,0,0,1,664.1,2146c0-27.61-51.59-105.9-97.38-129.4a19,19,0,1,1,17.36-33.84c45.69,23.45,98.48,90.28,113.73,138.8a72.16,72.16,0,0,1,44,135.11,79.9,79.9,0,0,1-94.93,119.1,95.5,95.5,0,0,1-91.14,67.17Z"/><path class="cls-7" d="M1695.85,2835.55a19,19,0,0,1-12.59-33.27c119.19-105.34,235.23-145.41,344.89-119.08a19,19,0,1,1-8.88,37c-96.89-23.26-201.46,14-310.83,110.6A19,19,0,0,1,1695.85,2835.55Z"/><path class="cls-7" d="M514.71,2841.75a18.93,18.93,0,0,1-11.2-3.66c-161.25-117.78-240.8-135.2-279.12-129.11a19,19,0,1,1-6-37.56c67.08-10.68,167.65,33.78,307.53,135.95a19,19,0,0,1-11.23,34.38Z"/><path class="cls-7" d="M1881,3003.24a19,19,0,0,1-18.48-23.58c7-28.15,1.83-66-15.23-112.6A19,19,0,0,1,1883,2854c20,54.57,25.36,98.67,16.44,134.81A19,19,0,0,1,1881,3003.24Z"/><path class="cls-7" d="M2054.5,2969.86a19,19,0,0,1-18.23-24.48c4.43-14.77,2.86-45.33-29.73-107.09a19,19,0,1,1,33.63-17.76c31.43,59.55,42.07,104,32.53,135.77A19,19,0,0,1,2054.5,2969.86Z"/><path class="cls-7" d="M123.23,2954a19,19,0,0,1-16.55-9.6c-19.06-33.44-15.68-78.13,10-132.84a19,19,0,0,1,34.42,16.18c-20.15,42.85-24,75.76-11.42,97.82A19,19,0,0,1,123.23,2954Z"/><path class="cls-7" d="M274.71,2989.88a19,19,0,0,1-17.24-11c-17.86-38.11-9.67-82.48,24.33-131.86a19,19,0,0,1,31.33,21.57c-26.16,38-33.1,68.79-21.22,94.16a19,19,0,0,1-17.2,27.09Z"/><path class="cls-10" d="M1003.71,1327.83c-31.84,108.22-105.91,198.5-206.63,251.47-96.2,50.43-217.62,64.76-316.4,13-123.1-64.49-157.92-198.93-146.76-328.62l2.22-25.66,20.18-16c188-149.13,456.28-142.32,636.49,16.17a126.91,126.91,0,0,1,153.2,0c180.21-158.49,448.46-165.3,636.49-16.17l20.18,16,2.22,25.66c11.16,129.69-23.66,264.13-146.75,328.62-98.82,51.75-220.2,37.42-316.41-13-101.67-53.31-175.94-144.53-207.31-253.85a71,71,0,0,0-130.72,2.38Z"/><path class="cls-7" d="M619.08,1641.31c-51.94,0-101.89-11.47-146-34.56-112.55-59-169.2-184.52-155.43-344.46l2.22-25.66a16.25,16.25,0,0,1,6.1-11.36l20.18-16a512.5,512.5,0,0,1,647.75,8.42,143.93,143.93,0,0,1,151,0,512.5,512.5,0,0,1,647.74-8.43l20.19,16a16.25,16.25,0,0,1,6.1,11.36l2.22,25.66c13.77,159.94-42.88,285.49-155.43,344.46-96.06,50.31-220,45.46-331.54-13-105.69-55.41-182-148.65-215.07-262.61a54.7,54.7,0,0,0-100,2.12c-33.43,112.84-109.56,205.33-214.43,260.49C744.3,1625.37,680.31,1641.31,619.08,1641.31ZM351.77,1246.43l-1.61,18.66c-7.4,85.92.71,240.81,138.08,312.79,86.56,45.34,199.19,40.49,301.27-13,97.24-51.14,167.76-137,198.56-241.64.15-.5.32-1,.52-1.48a87.29,87.29,0,0,1,160.72-2.93,13.59,13.59,0,0,1,.78,2.13c30.39,105.86,101.13,192.48,199.21,243.92,102.07,53.48,214.7,58.35,301.28,13,137.38-72,145.47-226.87,138.08-312.79l-1.61-18.66-14.69-11.67a479.94,479.94,0,0,0-615.58,15.65,16.31,16.31,0,0,1-20.61.76,111,111,0,0,0-133.53,0,16.3,16.3,0,0,1-20.6-.76,479.94,479.94,0,0,0-615.59-15.64Z"/><path class="cls-5" d="M393.45,1268.82c-36.71,425.89,488.12,358.48,559.91,14.23-158.64-139.52-394.39-145.5-559.91-14.23"/><g class="cls-11"><path class="cls-6" d="M707.56,1551.64,583.89,1181.79a435.36,435.36,0,0,0-102.46,32.79l116.92,349.74c35.49,2.68,72.7-1.72,109.21-12.68"/></g><g class="cls-12"><path class="cls-6" d="M631.65,1175.5,751.82,1535a359.38,359.38,0,0,0,56.74-32.44L699.26,1175.6a439.76,439.76,0,0,0-67.61-.1"/></g><path class="cls-5" d="M1741.35,1270.27c36.17,419.75-481.09,353.32-551.84,14,156.37-137.5,388.71-143.4,551.84-14"/><g class="cls-13"><path class="cls-6" d="M1471.62,1184.38l120.17,359.44a359.26,359.26,0,0,0,56.74-32.42l-109.32-326.92a440.76,440.76,0,0,0-67.59-.1m84.35,365-123.66-369.84a435.89,435.89,0,0,0-102.49,32.79l117,349.74C1482.23,1564.76,1519.45,1560.39,1556,1549.41Z"/></g><path class="cls-10" d="M336.14,1238a578.76,578.76,0,0,0-2.72,107.83q-187.67-88.53,53-189.65Q361.79,1211.22,336.14,1238Z"/><path class="cls-7" d="M333.42,1362.16a16.2,16.2,0,0,1-7-1.56c-62.37-29.42-92.31-60.82-91.55-96,.92-43,47-82.21,145.17-123.44a16.3,16.3,0,0,1,21.19,21.69C385.1,1199,368.85,1226,351.7,1245.2a569.43,569.43,0,0,0-2,99.63,16.28,16.28,0,0,1-16.26,17.33Zm17.34-171.74c-70.77,35.58-83,61.57-83.27,74.9-.35,16.57,16.29,34.73,48.46,53.16a578.89,578.89,0,0,1,4-82.45,16.34,16.34,0,0,1,4.41-9.28C333.14,1217.6,342,1205.44,350.76,1190.42Z"/><path class="cls-10" d="M1803.11,1238a579.62,579.62,0,0,1,2.72,107.83q187.65-88.53-53-189.65Q1777.45,1211.22,1803.11,1238Z"/><path class="cls-7" d="M1805.82,1362.16a16.28,16.28,0,0,1-16.26-17.33,569.43,569.43,0,0,0-2-99.63c-17.14-19.18-33.4-46.19-49.57-82.33a16.3,16.3,0,0,1,21.19-21.69c98.12,41.23,144.25,80.46,145.18,123.44.76,35.16-29.2,66.56-91.56,96A16.24,16.24,0,0,1,1805.82,1362.16Zm-17.34-171.74c8.8,15,17.62,27.18,26.39,36.33a16.34,16.34,0,0,1,4.41,9.28,579,579,0,0,1,4,82.46c32.17-18.44,48.81-36.6,48.46-53.17C1871.46,1252,1859.25,1226,1788.48,1190.42Z"/><path class="cls-5" d="M951,1519.93c21,233.94,186.31,241.11,191.88,5.55a80.88,80.88,0,0,1-91.69-50.47A67.32,67.32,0,0,1,951,1519.93"/><path class="cls-6" d="M1048,1475q21,44.51,61.62,50.87A57.28,57.28,0,1,1,995,1528q43.68-11.61,52.91-52.94"/><path class="cls-5" d="M1053.3,1399c32.93,0,59.59,16.7,59.59,37.3s-26.66,37.3-59.59,37.3-59.56-16.71-59.56-37.3,26.66-37.3,59.56-37.3"/><path class="cls-7" d="M1019.77,802.87a19,19,0,0,1-8-1.8C957.8,775.84,922,742.56,905.2,702.16a19,19,0,1,1,35.13-14.57c13,31.35,42.45,57.95,87.51,79a19,19,0,0,1-8.07,36.24Z"/><path class="cls-7" d="M1219.77,818.87c-.37,0-.73,0-1.1,0a19,19,0,0,1-17.9-20.07c3.1-54-6.24-104.53-27.74-150.21a19,19,0,0,1,34.41-16.2c24.23,51.47,34.77,108.19,31.3,168.59A19,19,0,0,1,1219.77,818.87Z"/><path class="cls-7" d="M984.91,1548.27a85.92,85.92,0,0,1-79.24-52.45,19,19,0,0,1,35-15,48.32,48.32,0,0,0,91.84-9.56,19,19,0,0,1,36.42-3.07,61.85,61.85,0,0,0,112.18,7.48,19,19,0,0,1,33.43,18.15,99.81,99.81,0,0,1-160.74,20.53A86,86,0,0,1,994,1547.79,87.59,87.59,0,0,1,984.91,1548.27Z"/><path class="cls-7" d="M1109.14,2088.35c-114.18,0-232.48-17.56-347.92-52.46a19,19,0,0,1,11-36.41c198.55,60,405.53,67.16,582.8,20.11,173-45.94,303.19-139.14,366.47-262.44a19,19,0,1,1,33.84,17.36c-68.27,133-207,233.1-390.55,281.84C1284.29,2077.71,1198,2088.35,1109.14,2088.35Z"/><path class="cls-7" d="M618.49,1581.36a278.21,278.21,0,0,1-40.5-2.91c-64.22-9.43-117-40.62-152.62-90.2-39.81-55.41-56-129.71-48.16-220.83a16.26,16.26,0,0,1,6.11-11.37,452.83,452.83,0,0,1,580.8,14.76,16.28,16.28,0,0,1,5.2,15.56C930.63,1471.87,764.94,1581.36,618.49,1581.36Zm-209.36-304.1c-10.82,151,53.74,251.34,173.6,268.94a250.48,250.48,0,0,0,36.41,2.61c130.22,0,277.43-96.24,316.19-259.77A420.25,420.25,0,0,0,409.13,1277.26Z"/><path class="cls-7" d="M1520.33,1581.36c-146.45,0-312.14-109.48-350.82-295a16.27,16.27,0,0,1,5.19-15.56,452.84,452.84,0,0,1,580.8-14.76,16.26,16.26,0,0,1,6.11,11.37c7.86,91.12-8.35,165.42-48.17,220.84-35.62,49.58-88.4,80.76-152.61,90.19A278.21,278.21,0,0,1,1520.33,1581.36ZM1203.49,1289c42.43,179,214.87,277.37,352.6,257.16,119.86-17.6,184.42-117.91,173.6-268.94A420.22,420.22,0,0,0,1203.49,1289Z"/><g class="cls-9"><path class="cls-5" d="M1096,2069.33a996.93,996.93,0,0,0,527.28-162c-126.21,105.58-315.72,164.43-527.28,162"/></g><g class="cls-9"><path class="cls-5" d="M710.5,1984.71c2.32,1.42,4.66,2.85,7,4.25-2.37-1.4-4.71-2.83-7-4.25"/></g><g class="cls-9"><path class="cls-5" d="M640,2035.9q9.78,4.66,19.56,9.11-9.78-4.46-19.56-9.11"/></g><g class="cls-9"><path class="cls-5" d="M1990.14,1975.93c-111.72,140.82-217.08,188.34-344.37,125.55a391,391,0,0,1,101.81,216.65q-1.51-19.43-4-40.11,185.51-37.61,325.28-281.72c-21.52-.57-57.2-13-78.72-20.37"/></g><g class="cls-9"><path class="cls-5" d="M587.25,1868.37c5.46,8,11.19,15.64,17.18,23.14q15.2,24.33,14.57,44.44c-.15,1.93-.33,3.91-.55,5.88q-5.34,34.74-61.09,56c17.77,10.06,33.82,17.87,48.42,23.37,40.06,35.4,77.34,94.37,77.34,124.8a53.11,53.11,0,1,1,16.9,99.55,60.82,60.82,0,1,1-68,98.21,76.38,76.38,0,1,1-152.56-.43q-27.1,36.33-24.06,82a115.77,115.77,0,0,0,196.68-40.87,89.45,89.45,0,0,0,103.3-130.19,86.63,86.63,0,0,0-35.38-162l-11.21-25.86-8.38-3.47Q1306,2316.46,1762,1812.56q-47.32,28.26-110,73.54a641.31,641.31,0,0,0,166.72-415,317.36,317.36,0,0,1-62.67,94.57c11.88,233.49-395.14,394.31-697.19,394.91-231.66.45-670.25-138.2-682.81-395.91-32.37-37.86-58.51-85.45-75.91-142.91a504.41,504.41,0,0,0,9.68,138q25.38,121.26,110.05,240.6-14.19,3.84-27.46,8.33c3.14-.76,6.3-1.45,9.46-2.06a206.19,206.19,0,0,1,160.49,35.85,339,339,0,0,1,24.87,25.93"/></g><g class="cls-9"><path class="cls-5" d="M363.11,2670.38c-28.52-34.65,20.28-106.58,65.16-185.15q-135.75,71.2-123.89,216.3,83.42,28.48,210.35,121.2c-15.24-67.6-88.71-76-151.62-152.35"/></g><g class="cls-9"><path class="cls-5" d="M1812.48,2674.16c25-30.43-17.8-93.6-57.22-162.62q119.21,62.55,108.81,190-73.27,25-184.76,106.46c13.4-59.39,77.94-66.8,133.17-133.82"/></g><path class="cls-7" d="M2074.38,2015.37a234.6,234.6,0,0,1-76.24-13,19,19,0,0,1,12.3-36c39.47,13.48,77.83,14.56,117.3,3.31a19,19,0,0,1,10.43,36.57A231.85,231.85,0,0,1,2074.38,2015.37Z"/><g class="cls-9"><path class="cls-5" d="M1127.48,1314q-91.2-71-140.09,37-75.32,263-421,270.36-195.61-32.19-253.22-285s-4.33,28.45-13,85.37c110.89,366.63,578.8,331,738.17-65q26.37-94.9,65.63,3.71c172.29,393.27,598.76,379.22,714.78,110.67q18.6-114.16-50.61,12.21-101,164.79-297.77,138.65-250.77-43.23-342.88-307.92"/></g><g class="cls-14"><path class="cls-5" d="M1846.66,489.89a1635.56,1635.56,0,0,0-196.41,530.59q-32.46-110.64,83.45-447.26Q1567,450.9,1571,346.33,1696.21,522,1846.66,489.89M496.51,847.4Q84,244,379.74,20.17C172.58-5.87,82.79,397.55,521.18,975.6q-9.58,10.53-18.79,21,72.3-31.12,3.93-135Q501.36,854.5,496.51,847.4Z"/></g><path class="cls-7" d="M1351.8,2793.64a1334.62,1334.62,0,0,0-504.24,0l-7.16-37.36a1372.11,1372.11,0,0,1,518.56,0Z"/></g></g></svg>